<svg width="17" height="16" viewBox="0 0 17 16" fill="none" xmlns="http://www.w3.org/2000/svg">
<rect width="17" height="16" rx="8" fill="white"/>
<path d="M6.61 3H10.39C11.83 3 13 4.17 13 5.61V9.39C13 10.0822 12.725 10.7461 12.2355 11.2355C11.7461 11.725 11.0822 12 10.39 12H6.61C5.17 12 4 10.83 4 9.39V5.61C4 4.91778 4.27498 4.25392 4.76445 3.76445C5.25392 3.27498 5.91778 3 6.61 3ZM6.52 3.9C6.09035 3.9 5.6783 4.07068 5.37449 4.37449C5.07068 4.6783 4.9 5.09035 4.9 5.52V9.48C4.9 10.3755 5.6245 11.1 6.52 11.1H10.48C10.9097 11.1 11.3217 10.9293 11.6255 10.6255C11.9293 10.3217 12.1 9.90965 12.1 9.48V5.52C12.1 4.6245 11.3755 3.9 10.48 3.9H6.52ZM10.8625 4.575C11.0117 4.575 11.1548 4.63426 11.2602 4.73975C11.3657 4.84524 11.425 4.98832 11.425 5.1375C11.425 5.28668 11.3657 5.42976 11.2602 5.53525C11.1548 5.64074 11.0117 5.7 10.8625 5.7C10.7133 5.7 10.5702 5.64074 10.4648 5.53525C10.3593 5.42976 10.3 5.28668 10.3 5.1375C10.3 4.98832 10.3593 4.84524 10.4648 4.73975C10.5702 4.63426 10.7133 4.575 10.8625 4.575ZM8.5 5.25C9.09674 5.25 9.66903 5.48705 10.091 5.90901C10.5129 6.33097 10.75 6.90326 10.75 7.5C10.75 8.09674 10.5129 8.66903 10.091 9.09099C9.66903 9.51295 9.09674 9.75 8.5 9.75C7.90326 9.75 7.33097 9.51295 6.90901 9.09099C6.48705 8.66903 6.25 8.09674 6.25 7.5C6.25 6.90326 6.48705 6.33097 6.90901 5.90901C7.33097 5.48705 7.90326 5.25 8.5 5.25ZM8.5 6.15C8.14196 6.15 7.79858 6.29223 7.54541 6.54541C7.29223 6.79858 7.15 7.14196 7.15 7.5C7.15 7.85804 7.29223 8.20142 7.54541 8.45459C7.79858 8.70777 8.14196 8.85 8.5 8.85C8.85804 8.85 9.20142 8.70777 9.45459 8.45459C9.70777 8.20142 9.85 7.85804 9.85 7.5C9.85 7.14196 9.70777 6.79858 9.45459 6.54541C9.20142 6.29223 8.85804 6.15 8.5 6.15Z" fill="black"/>
</svg>
