<svg width="16" height="16" viewBox="0 0 16 16" fill="none" xmlns="http://www.w3.org/2000/svg">
<rect width="16" height="16" rx="8" fill="white"/>
<path d="M11.1403 3.72333C10.748 3.24638 10.5318 2.63397 10.5319 2H8.75829V9.57778C8.7449 9.98795 8.58238 10.3765 8.30502 10.6616C8.02767 10.9466 7.65717 11.1058 7.27168 11.1056C6.45663 11.1056 5.77934 10.3967 5.77934 9.51667C5.77934 8.46556 6.73214 7.67722 7.71365 8.00111V6.07C5.73342 5.78889 4 7.42667 4 9.51667C4 11.5517 5.58418 13 7.26594 13C9.06824 13 10.5319 11.4417 10.5319 9.51667V5.67278C11.2511 6.22269 12.1146 6.51773 13 6.51611V4.62778C13 4.62778 11.9209 4.68278 11.1403 3.72333Z" fill="black"/>
</svg>
