<svg width="16" height="16" viewBox="0 0 16 16" fill="none" xmlns="http://www.w3.org/2000/svg">
<rect width="16" height="16" rx="8" fill="white"/>
<path d="M7 9L9.595 7.5L7 6V9ZM12.78 5.085C12.845 5.32 12.89 5.635 12.92 6.035C12.955 6.435 12.97 6.78 12.97 7.08L13 7.5C13 8.595 12.92 9.4 12.78 9.915C12.655 10.365 12.365 10.655 11.915 10.78C11.68 10.845 11.25 10.89 10.59 10.92C9.94 10.955 9.345 10.97 8.795 10.97L8 11C5.905 11 4.6 10.92 4.085 10.78C3.635 10.655 3.345 10.365 3.22 9.915C3.155 9.68 3.11 9.365 3.08 8.965C3.045 8.565 3.03 8.22 3.03 7.92L3 7.5C3 6.405 3.08 5.6 3.22 5.085C3.345 4.635 3.635 4.345 4.085 4.22C4.32 4.155 4.75 4.11 5.41 4.08C6.06 4.045 6.655 4.03 7.205 4.03L8 4C10.095 4 11.4 4.08 11.915 4.22C12.365 4.345 12.655 4.635 12.78 5.085Z" fill="black"/>
</svg>
