<svg width="16" height="16" viewBox="0 0 16 16" fill="none" xmlns="http://www.w3.org/2000/svg">
<rect width="16" height="16" rx="8" fill="white"/>
<path d="M13 4.94118C12.6319 5.10588 12.2352 5.21412 11.8241 5.26588C12.2447 5.01647 12.5698 4.62118 12.7228 4.14588C12.326 4.38118 11.8862 4.54588 11.4226 4.64C11.0449 4.23529 10.5143 4 9.91205 4C8.78872 4 7.87094 4.90353 7.87094 6.01882C7.87094 6.17882 7.89006 6.33412 7.92352 6.48C6.2218 6.39529 4.7065 5.59059 3.6979 4.37176C3.52103 4.66824 3.42065 5.01647 3.42065 5.38353C3.42065 6.08471 3.77916 6.70588 4.33365 7.05882C3.99426 7.05882 3.67878 6.96471 3.40153 6.82353V6.83765C3.40153 7.81647 4.10899 8.63529 5.04589 8.81882C4.74514 8.9002 4.42927 8.91148 4.12333 8.85177C4.25316 9.25293 4.50743 9.60396 4.85039 9.8555C5.19335 10.107 5.60777 10.2464 6.03537 10.2541C5.31055 10.8191 4.41205 11.1244 3.48757 11.12C3.32505 11.12 3.16252 11.1106 3 11.0918C3.90822 11.6659 4.98853 12 6.14532 12C9.91205 12 11.9818 8.92235 11.9818 6.25412C11.9818 6.16471 11.9818 6.08 11.9771 5.99059C12.3786 5.70824 12.7228 5.35059 13 4.94118Z" fill="black"/>
</svg>
